<svg xmlns="http://www.w3.org/2000/svg" aria-hidden="true" style="position:absolute;width:0;height:0;overflow:hidden">
    <defs>
        <symbol id="icon-close-btn" viewBox="0 0 32 32">
            <path d="M24 6.4c-.442 0-.842.179-1.131.469l-16 16c-.289.29-.468.689-.468 1.131s.179.842.468 1.131c.29.289.689.468 1.131.468s.842-.179 1.131-.468l16-16c.289-.29.468-.689.468-1.131s-.179-.842-.468-1.131A1.593 1.593 0 0 0 24 6.4z"/>
            <path d="M8 6.4A1.596 1.596 0 0 0 6.401 8c0 .442.179.842.468 1.131l16 16c.29.289.689.468 1.131.468s.842-.179 1.131-.468c.289-.29.468-.689.468-1.131s-.179-.842-.468-1.131l-16-16A1.593 1.593 0 0 0 8 6.4z"/>
        </symbol>
        <symbol id="icon-mobile-menu" viewBox="0 0 32 32">
            <path d="M5.333 6.4a1.6 1.6 0 1 0 0 3.2h21.334a1.6 1.6 0 1 0 0-3.2zm0 8a1.6 1.6 0 1 0 0 3.2H16a1.6 1.6 0 1 0 0-3.2zm0 8a1.6 1.6 0 1 0 0 3.2h21.334a1.6 1.6 0 1 0 0-3.2z"/>
        </symbol>
    </defs>
</svg>